<svg width="800" height="800" viewBox="0 0 800 800" fill="none" xmlns="http://www.w3.org/2000/svg">
<path d="M400 25C607.112 25 775 192.888 775 400C775 607.112 607.112 775 400 775C192.888 775 25 607.112 25 400C25 192.888 192.888 25 400 25ZM400 212.5C380.762 212.5 362.2 215.387 344.763 220.75C358.596 226.983 370.711 236.481 380.065 248.428C389.419 260.374 395.734 274.413 398.467 289.338C401.2 304.263 400.269 319.628 395.755 334.115C391.242 348.601 383.279 361.775 372.551 372.506C361.824 383.236 348.652 391.203 334.167 395.721C319.683 400.24 304.318 401.175 289.392 398.446C274.466 395.718 260.425 389.407 248.476 380.056C236.526 370.706 227.025 358.594 220.788 344.763C209.159 382.484 209.731 422.914 222.424 460.291C235.117 497.668 259.282 530.086 291.477 552.926C323.672 575.766 362.254 587.862 401.726 587.492C441.198 587.121 479.546 574.303 511.306 550.863C543.067 527.423 566.62 494.557 578.609 456.949C590.598 419.34 590.412 378.906 578.077 341.41C565.742 303.913 541.888 271.265 509.913 248.119C477.938 224.972 439.474 212.507 400 212.5Z" fill="#FF8A00"/>
</svg>
